<?xml version="1.0" encoding="UTF-8"?>
<svg width="339px" height="339px" viewBox="0 0 339 339" version="1.1" xmlns="http://www.w3.org/2000/svg" xmlns:xlink="http://www.w3.org/1999/xlink">
    <!-- Generator: Sketch 47.1 (45422) - http://www.bohemiancoding.com/sketch -->
    <title>nfc</title>
    <desc>Created with Sketch.</desc>
    <defs></defs>
    <g id="Enablement" stroke="none" stroke-width="1" fill="none" fill-rule="evenodd">
        <g id="Enablement-Step-3" transform="translate(-486.000000, -174.000000)" fill="#227F99">
            <g id="nfc" transform="translate(486.000000, 174.000000)">
                <path d="M305.1,0 L33.9,0 C15.255,0 0,15.255 0,33.9 L0,305.1 C0,323.745 15.255,339 33.9,339 L305.1,339 C323.745,339 339,323.745 339,305.1 L339,33.9 C339,15.255 323.745,0 305.1,0 L305.1,0 Z M305.1,305.1 L33.9,305.1 L33.9,33.9 L305.1,33.9 L305.1,305.1 L305.1,305.1 Z M271.2,67.8 L186.45,67.8 C167.805,67.8 152.55,83.055 152.55,101.7 L152.55,140.685 C142.38,145.77 135.6,157.635 135.6,169.5 C135.6,188.145 150.855,203.4 169.5,203.4 C188.145,203.4 203.4,188.145 203.4,169.5 C203.4,157.635 196.62,145.77 186.45,140.685 L186.45,101.7 L237.3,101.7 L237.3,237.3 L101.7,237.3 L101.7,101.7 L135.6,101.7 L135.6,67.8 L101.7,67.8 L67.8,67.8 L67.8,271.2 L271.2,271.2 L271.2,67.8 L271.2,67.8 Z" id="Shape"></path>
            </g>
        </g>
    </g>
</svg>